<svg width="22" height="21" viewBox="0 0 22 21" fill="none" xmlns="http://www.w3.org/2000/svg">
    <path d="M14.5 10.311a4.2 4.2 0 01-2.161 3.233A4.2 4.2 0 0111 13.811a4.2 4.2 0 01-3.5-3.5 4.2 4.2 0 013.5-3.5 4.2 4.2 0 013.5 3.5z" stroke="#1C152F" stroke-width="1.5" stroke-linecap="round" stroke-linejoin="round"/>
    <path d="M20.011 12.408c.522-.14.783-.211.886-.345.103-.134.103-.35.103-.783V9.344c0-.433 0-.65-.103-.784-.103-.134-.364-.205-.886-.345-1.95-.526-3.17-2.565-2.667-4.503.14-.533.21-.8.144-.956-.066-.156-.256-.264-.635-.479L15.125 1.297c-.372-.21-.558-.316-.725-.294-.167.022-.356.21-.733.587C12.208 3.045 9.794 3.045 8.334 1.59 7.957 1.214 7.769 1.026 7.602 1.003c-.167-.022-.353.083-.725.295L5.152 2.277c-.38.215-.57.323-.635.479-.066.156-.004.423.134.956.503 1.938-1.038 3.978-2.989 4.504-.522.14-.783.21-.886.345-.103.134-.103.35-.103.783v1.934c0 .433 0 .65.103.783.103.134.364.205.886.345 1.95.526 3.17 2.565 2.667 4.502-.14.533-.21.8-.144.956.066.156.256.264.635.479l1.725.978c.372.212.558.318.725.296.167-.022.356-.21.733-.587 1.46-1.457 3.876-1.457 5.336 0 .377.377.566.565.733.587.167.022.353-.084.725-.296l1.725-.979c.38-.215.57-.323.635-.479.066-.156.004-.423-.134-.956-.503-1.937 1.038-3.976 2.989-4.502z" stroke="#1C152F" stroke-width="1.5" stroke-linecap="round" stroke-linejoin="round"/>
</svg>
