<svg width="839" height="839" viewBox="0 0 839 839" fill="none" xmlns="http://www.w3.org/2000/svg">
<g clip-path="url(#clip0_2693_166)">
<path d="M629 210V210C686.99 210 734 162.99 734 105V7.27558e-06H629V210Z" fill="#EBDD3F"/>
<path d="M629 525V525C686.99 525 734 477.99 734 420V315H629V525Z" fill="#F2927D"/>
<path d="M420 315V315C477.438 315 524 267.99 524 210V105H420V315Z" fill="#F2927D"/>
<path d="M524 420V420C581.99 420 629 372.99 629 315V210H524V420Z" fill="#1EDA98"/>
<path d="M315 105V105C372.99 105 420 152.01 420 210V315H315V105Z" fill="#1EDA98"/>
<path d="M629 210V210C571.01 210 524 162.99 524 105V7.27558e-06H629V210Z" fill="#5739A8"/>
<path d="M105 420V420C105 362.01 152.01 315 210 315H315V420H105Z" fill="#F2927D"/>
<path d="M524 630V630C581.99 630 629 676.786 629 734.5V839H524V630Z" fill="#5739A8"/>
<path d="M315 630V630C372.99 630 420 582.99 420 525V420H315V630Z" fill="#F2927D"/>
<path d="M315 420V420C315 477.99 267.99 525 210 525H105V420H315Z" fill="#EBDD3F"/>
<path d="M524 839V839C466.562 839 420 792.214 420 734.5V630H524V839Z" fill="#F2927D"/>
<path d="M367.25 0C338.393 0 315 23.505 315 52.5V52.5C315 81.495 338.393 105 367.25 105H419.5C477.214 105 524 57.9899 524 0V0H367.25Z" fill="#5739A8"/>
<path d="M681.5 525C652.505 525 629 548.505 629 577.5V577.5C629 606.495 652.505 630 681.5 630H734C791.99 630 839 582.99 839 525V525H681.5Z" fill="#5739A8"/>
<path d="M891.5 105C920.495 105 944 128.505 944 157.5V157.5C944 186.495 920.495 210 891.5 210H839C781.01 210 734 162.99 734 105V105H891.5Z" fill="#F2927D"/>
<path d="M471.75 315C500.607 315 524 338.505 524 367.5V367.5C524 396.495 500.607 420 471.75 420H419.5C361.786 420 315 372.99 315 315V315H471.75Z" fill="#5739A8"/>
<path d="M315 577.5C315 548.505 291.495 525 262.5 525V525C233.505 525 210 548.505 210 577.5V630C210 687.99 257.01 735 315 735V735V577.5Z" fill="#1EDA98"/>
<path d="M210 0V105H105C47.0101 105 7.27558e-06 57.9899 7.27558e-06 0V0H210Z" fill="#1EDA98"/>
<path d="M315 -52.5C315 -81.4949 291.495 -105 262.5 -105V-105C233.505 -105 210 -81.4949 210 -52.5V1.8681e-05C210 57.9899 257.01 105 315 105V105V-52.5Z" fill="#EBDD3F"/>
<path d="M734 105V105C791.99 105 839 57.9899 839 3.63779e-06V3.63779e-06C839 -57.9899 791.99 -105 734 -105V-105V105Z" fill="#5739A8"/>
<path d="M734 525V525C791.99 525 839 477.99 839 420V420C839 362.01 791.99 315 734 315V315V525Z" fill="#1EDA98"/>
<path d="M315 839V839C372.99 839 420 792.214 420 734.5V734.5C420 676.786 372.99 630 315 630V630V839Z" fill="#EBDD3F"/>
<path d="M629 210V210C629 267.99 676.01 315 734 315V315C791.99 315 839 267.99 839 210V210H629Z" fill="#5739A8"/>
<path d="M629 735V735C629 677.01 676.01 630 734 630V630C791.99 630 839 677.01 839 735V735H629Z" fill="#1EDA98"/>
<path d="M629 735V735C629 792.438 676.01 839 734 839V839C791.99 839 839 792.438 839 735V735H629Z" fill="#EBDD3F"/>
<path d="M105 210C105 152.01 152.01 105 210 105V105C267.99 105 315 152.01 315 210V210C315 267.99 267.99 315 210 315V315C152.01 315 105 267.99 105 210V210Z" fill="#5739A8"/>
<path d="M420 525C420 467.01 466.786 420 524.5 420V420C582.214 420 629 467.01 629 525V525C629 582.99 582.214 630 524.5 630V630C466.786 630 420 582.99 420 525V525Z" fill="#1EDA98"/>
</g>
<defs>
<clipPath id="clip0_2693_166">
<rect width="839" height="839" fill="white"/>
</clipPath>
</defs>
</svg>
