<svg width="839" height="839" viewBox="0 0 839 839" fill="none" xmlns="http://www.w3.org/2000/svg">
<g clip-path="url(#clip0_2811_2226)">
<mask id="mask0_2811_2226" style="mask-type:luminance" maskUnits="userSpaceOnUse" x="0" y="0" width="839" height="839">
<path d="M839 0H0V839H839V0Z" fill="white"/>
</mask>
<g mask="url(#mask0_2811_2226)">
<path d="M629 210C686.99 210 734 162.99 734 105V0H629V210Z" fill="#EBDD3F"/>
<path d="M629 525C686.99 525 734 477.99 734 420V315H629V525Z" fill="#F2927D"/>
<path d="M420 315C477.438 315 524 267.99 524 210V105H420V315Z" fill="#F2927D"/>
<path d="M524 420C581.99 420 629 372.99 629 315V210H524V420Z" fill="#1EDA98"/>
<path d="M315 105C372.99 105 420 152.01 420 210V315H315V105Z" fill="#1EDA98"/>
<path d="M629 210C571.01 210 524 162.99 524 105V0H629V210Z" fill="#5739A8"/>
<path d="M105 419C105 361.01 152.01 314 210 314H315V419H105Z" fill="#5739A8"/>
<path d="M524 630C581.99 630 629 676.786 629 734.5V839H524V630Z" fill="#5739A8"/>
<path d="M315 630C372.99 630 420 582.99 420 525V420H315V630Z" fill="#F2927D"/>
<path d="M315 420C315 477.99 267.99 525 210 525H105V420H315Z" fill="#EBDD3F"/>
<path d="M524 839C466.562 839 420 792.214 420 734.5V630H524V839Z" fill="#F2927D"/>
<path d="M367.25 0C338.393 0 315 23.505 315 52.5C315 81.495 338.393 105 367.25 105H419.5C477.214 105 524 57.9899 524 0H367.25Z" fill="#5739A8"/>
<path d="M681.5 525C652.505 525 629 548.505 629 577.5C629 606.495 652.505 630 681.5 630H734C791.99 630 839 582.99 839 525H681.5Z" fill="#5739A8"/>
<path d="M891.5 105C920.495 105 944 128.505 944 157.5C944 186.495 920.495 210 891.5 210H839C781.01 210 734 162.99 734 105H891.5Z" fill="#F2927D"/>
<path d="M471.75 315C500.607 315 524 338.505 524 367.5C524 396.495 500.607 420 471.75 420H419.5C361.786 420 315 372.99 315 315H471.75Z" fill="#EBDD3F"/>
<path d="M315 577.5C315 548.505 291.495 525 262.5 525C233.505 525 210 548.505 210 577.5V630C210 687.99 257.01 735 315 735V577.5Z" fill="#1EDA98"/>
<path d="M210 0V105H105C47.0101 105 0 57.9899 0 0H210Z" fill="#1EDA98"/>
<path d="M315 -52.5C315 -81.4949 291.495 -105 262.5 -105C233.505 -105 210 -81.4949 210 -52.5V1.52588e-05C210 57.9899 257.01 105 315 105V-52.5Z" fill="#EBDD3F"/>
<path d="M734 105C791.99 105 839 57.9899 839 0C839 -57.9899 791.99 -105 734 -105V105Z" fill="#5739A8"/>
<path d="M734 525C791.99 525 839 477.99 839 420C839 362.01 791.99 315 734 315V525Z" fill="#1EDA98"/>
<path d="M315 839C372.99 839 420 792.214 420 734.5C420 676.786 372.99 630 315 630V839Z" fill="#EBDD3F"/>
<path d="M629 210C629 267.99 676.01 315 734 315C791.99 315 839 267.99 839 210H629Z" fill="#5739A8"/>
<path d="M629 735C629 677.01 676.01 630 734 630C791.99 630 839 677.01 839 735H629Z" fill="#1EDA98"/>
<path d="M629 735C629 792.438 676.01 839 734 839C791.99 839 839 792.438 839 735H629Z" fill="#EBDD3F"/>
<path d="M105 210C105 152.01 152.01 105 210 105C267.99 105 315 152.01 315 210C315 267.99 267.99 315 210 315C152.01 315 105 267.99 105 210Z" fill="#F2927D"/>
<path d="M420 525C420 467.01 466.786 420 524.5 420C582.214 420 629 467.01 629 525C629 582.99 582.214 630 524.5 630C466.786 630 420 582.99 420 525Z" fill="#1EDA98"/>
</g>
</g>
<defs>
<clipPath id="clip0_2811_2226">
<rect width="839" height="839" fill="white"/>
</clipPath>
</defs>
</svg>
