<svg xmlns="http://www.w3.org/2000/svg" viewBox="0 0 22 16" width="22" height="16" fill="none">
  <path d="M1 3h2.865c.727 0 1.424-.36 1.938-1 .733-1.086 1.819-1.406 2.804-.997L10 1.754M1 11.967h1.62c1.16 0 1.74 0 2.288.154l.08.024c.545.165 1.027.476 1.992 1.098 1.888 1.217 2.832 1.825 3.86 1.751l.146-.014c1.024-.122 1.826-.898 3.43-2.45L16 11M21 3.234h-2.517c-1.066 0-1.818-.58-2.583-1.351-.473-.49-1.111-.788-1.79-.836-.743-.045-1.604-.11-2.325.089-.803.22-1.333.825-1.895 1.456L8.443 4.222c-.59.664-.59 1.743 0 2.408.51.574 1.309.663 1.91.212.432-.324.922-.847 1.431-1.012.573-.185.928.232 1.252.67l2.32 3.134c.862 1.164 1.292 1.745 1.88 2.056.59.31 1.262.31 2.607.31H21"
        stroke="black" stroke-width="1.5" stroke-linecap="round" stroke-linejoin="round"/>
</svg>
