<svg width="839" height="839" viewBox="0 0 839 839" fill="none" xmlns="http://www.w3.org/2000/svg">
<g clip-path="url(#clip0_4552_827)">
<path d="M210 629V629C152.01 629 105 676.01 105 734L105 839H210L210 629Z" fill="#1EDA98"/>
<path d="M210 314V314C152.01 314 105 361.01 105 419L105 524H210L210 314Z" fill="#5739A8"/>
<path d="M419 524V524C361.562 524 315 571.01 315 629V734H419V524Z" fill="#5739A8"/>
<path d="M315 419V419C257.01 419 210 466.01 210 524L210 629H315V419Z" fill="#EBDD3F"/>
<path d="M524 734V734C466.01 734 419 686.99 419 629V524H524V734Z" fill="#EBDD3F"/>
<path d="M210 629V629C267.99 629 315 676.01 315 734V839H210L210 629Z" fill="#F2927D"/>
<path d="M734 419V419C734 476.99 686.99 524 629 524H524V419H734Z" fill="#5739A8"/>
<path d="M315 209V209C257.01 209 210 162.214 210 104.5L210 5.28493e-06H315V209Z" fill="#F2927D"/>
<path d="M524 209V209C466.01 209 419 256.01 419 314V419H524V209Z" fill="#5739A8"/>
<path d="M524 419V419C524 361.01 571.01 314 629 314H734V419H524Z" fill="#1EDA98"/>
<path d="M315 0V0C372.438 0 419 46.7863 419 104.5V209H315V0Z" fill="#5739A8"/>
<path d="M471.75 839C500.607 839 524 815.495 524 786.5V786.5C524 757.505 500.607 734 471.75 734H419.5C361.786 734 315 781.01 315 839V839H471.75Z" fill="#F2927D"/>
<path d="M157.5 314C186.495 314 210 290.495 210 261.5V261.5C210 232.505 186.495 209 157.5 209H105C47.0101 209 7.27558e-06 256.01 7.27558e-06 314V314H157.5Z" fill="#F2927D"/>
<path d="M-52.5 734C-81.4949 734 -105 710.495 -105 681.5V681.5C-105 652.505 -81.4949 629 -52.5 629H1.8681e-05C57.9899 629 105 676.01 105 734V734H-52.5Z" fill="#5739A8"/>
<path d="M367.25 524C338.393 524 315 500.495 315 471.5V471.5C315 442.505 338.393 419 367.25 419H419.5C477.214 419 524 466.01 524 524V524H367.25Z" fill="#F2927D"/>
<path d="M524 261.5C524 290.495 547.505 314 576.5 314V314C605.495 314 629 290.495 629 261.5V209C629 151.01 581.99 104 524 104V104V261.5Z" fill="#EBDD3F"/>
<path d="M629 839V734H734C791.99 734 839 781.01 839 839V839H629Z" fill="#EBDD3F"/>
<path d="M524 891.5C524 920.495 547.505 944 576.5 944V944C605.495 944 629 920.495 629 891.5V839C629 781.01 581.99 734 524 734V734V891.5Z" fill="#1EDA98"/>
<path d="M105 734V734C47.0101 734 3.63779e-06 781.01 3.63779e-06 839V839C3.63779e-06 896.99 47.0101 944 105 944V944L105 734Z" fill="#F2927D"/>
<path d="M105 314V314C47.0101 314 3.63779e-06 361.01 3.63779e-06 419V419C3.63779e-06 476.99 47.0101 524 105 524V524L105 314Z" fill="#EBDD3F"/>
<path d="M524 0V0C466.01 0 419 46.7862 419 104.5V104.5C419 162.214 466.01 209 524 209V209V0Z" fill="#1EDA98"/>
<path d="M210 629V629C210 571.01 162.99 524 105 524V524C47.0101 524 7.27558e-06 571.01 7.27558e-06 629V629H210Z" fill="#F2927D"/>
<path d="M210 104V104C210 161.99 162.99 209 105 209V209C47.0101 209 7.27558e-06 161.99 7.27558e-06 104V104L210 104Z" fill="#EBDD3F"/>
<path d="M210 104V104C210 46.5624 162.99 1.64714e-06 105 1.64714e-06V1.64714e-06C47.0101 1.64714e-06 7.27558e-06 46.5624 7.27558e-06 104V104L210 104Z" fill="#1EDA98"/>
<path d="M734 629C734 686.99 686.99 734 629 734V734C571.01 734 524 686.99 524 629V629C524 571.01 571.01 524 629 524V524C686.99 524 734 571.01 734 629V629Z" fill="#F2927D"/>
<path d="M419 314C419 371.99 372.214 419 314.5 419V419C256.786 419 210 371.99 210 314V314C210 256.01 256.786 209 314.5 209V209C372.214 209 419 256.01 419 314V314Z" fill="#EBDD3F"/>
</g>
<defs>
<clipPath id="clip0_4552_827">
<rect width="839" height="839" fill="white" transform="matrix(-1 0 0 -1 839 839)"/>
</clipPath>
</defs>
</svg>
