<svg width="419" height="420" viewBox="0 0 419 420" fill="none" xmlns="http://www.w3.org/2000/svg">
<g clip-path="url(#clip0_4555_198)">
<path d="M105 0V0C47.0101 0 3.63779e-06 47.0101 3.63779e-06 105L3.63779e-06 210H105L105 0Z" fill="#5739A8"/>
<path d="M52.5 420C23.5051 420 0 396.495 0 367.5V367.5C0 338.505 23.5051 315 52.5 315H105C162.99 315 210 362.01 210 420V420H52.5Z" fill="#F2927D"/>
<path d="M210 315V315C210 257.01 162.99 210 105 210V210C47.0101 210 7.27558e-06 257.01 7.27558e-06 315V315H210Z" fill="#EBDD3F"/>
<path d="M314 105C314 162.99 267.214 210 209.5 210V210C151.786 210 105 162.99 105 105V105C105 47.0101 151.786 7.27558e-06 209.5 7.27558e-06V7.27558e-06C267.214 7.27558e-06 314 47.0101 314 105V105Z" fill="#1EDA98"/>
</g>
<defs>
<clipPath id="clip0_4555_198">
<rect width="419" height="420" fill="white" transform="matrix(-1 0 0 -1 419 420)"/>
</clipPath>
</defs>
</svg>
