<svg width="314" height="420" viewBox="0 0 314 420" fill="none" xmlns="http://www.w3.org/2000/svg">
<g clip-path="url(#clip0_4555_164)">
<path d="M104 315V315C46.0101 315 -0.999996 267.99 -0.999996 210L-0.999996 105H104L104 315Z" fill="#EBDD3F"/>
<path d="M51.75 420C80.6069 420 104 396.495 104 367.5V367.5C104 338.505 80.6069 315 51.75 315H-0.50002C-58.2138 315 -105 362.01 -105 420V420H51.75Z" fill="#5739A8"/>
<path d="M52.25 105C23.3931 105 0 81.495 0 52.5V52.5C0 23.505 23.3931 3.63779e-06 52.25 3.63779e-06L104.5 3.63779e-06C162.214 3.63779e-06 209 47.0101 209 105V105L52.25 105Z" fill="#F2927D"/>
<path d="M104 420L104 315H209C266.99 315 314 362.01 314 420V420H104Z" fill="#1EDA98"/>
<path d="M314 210C314 267.99 266.99 315 209 315V315C151.01 315 104 267.99 104 210V210C104 152.01 151.01 105 209 105V105C266.99 105 314 152.01 314 210V210Z" fill="#5739A8"/>
</g>
<defs>
<clipPath id="clip0_4555_164">
<rect width="314" height="420" fill="white" transform="matrix(-1 0 0 -1 314 420)"/>
</clipPath>
</defs>
</svg>
