<svg width="22" height="22" viewBox="0 0 22 22" fill="none" xmlns="http://www.w3.org/2000/svg">
    <path d="M11.5 21H5.59C4.045 21 2.816 20.248 1.713 19.197C-0.547 17.044 3.163 15.324 4.578 14.482C6.812 13.162 9.451 12.702 12 13.188M17.691 13.578L18.395 14.998C18.455 15.104 18.536 15.197 18.634 15.27C18.732 15.343 18.844 15.394 18.963 15.421L20.239 15.634C21.055 15.771 21.247 16.368 20.659 16.957L19.667 17.957C19.58 18.055 19.516 18.172 19.48 18.298C19.444 18.425 19.437 18.558 19.459 18.687L19.743 19.925C19.967 20.905 19.451 21.284 18.591 20.772L17.395 20.058C17.273 19.995 17.137 19.961 16.999 19.961C16.861 19.961 16.725 19.995 16.603 20.058L15.407 20.772C14.551 21.284 14.031 20.901 14.255 19.925L14.539 18.687C14.561 18.558 14.554 18.425 14.518 18.298C14.482 18.172 14.418 18.055 14.331 17.957L13.339 16.957C12.756 16.368 12.944 15.771 13.759 15.634L15.035 15.421C15.153 15.394 15.265 15.342 15.362 15.269C15.459 15.196 15.54 15.103 15.599 14.997L16.303 13.577C16.687 12.807 17.311 12.807 17.691 13.577M14.5 5.5C14.5 6.091 14.384 6.676 14.157 7.222C13.931 7.768 13.6 8.264 13.182 8.682C12.764 9.1 12.268 9.431 11.722 9.657C11.176 9.884 10.591 10 10 10C9.409 10 8.824 9.884 8.278 9.657C7.732 9.431 7.236 9.1 6.818 8.682C6.4 8.264 6.069 7.768 5.842 7.222C5.616 6.676 5.5 6.091 5.5 5.5C5.5 4.307 5.974 3.162 6.818 2.318C7.662 1.474 8.806 1 10 1C11.193 1 12.338 1.474 13.182 2.318C14.026 3.162 14.5 4.307 14.5 5.5Z" stroke="#1C152F" stroke-width="1.5" stroke-linecap="round" stroke-linejoin="round"/>
</svg>
